<?xml version="1.0" encoding="UTF-8" standalone="no"?>
<!-- Created with Inkscape (http://www.inkscape.org/) -->

<svg
   xmlns:dc="http://purl.org/dc/elements/1.1/"
   xmlns:cc="http://creativecommons.org/ns#"
   xmlns:rdf="http://www.w3.org/1999/02/22-rdf-syntax-ns#"
   xmlns:svg="http://www.w3.org/2000/svg"
   xmlns="http://www.w3.org/2000/svg"
   xmlns:sodipodi="http://sodipodi.sourceforge.net/DTD/sodipodi-0.dtd"
   xmlns:inkscape="http://www.inkscape.org/namespaces/inkscape"
   width="765"
   height="990"
   id="svg4883"
   version="1.1"
   inkscape:version="0.48.0 r9654"
   sodipodi:docname="messy_lined_papers.svg">
  <defs
     id="defs4885">
    <filter
       color-interpolation-filters="sRGB"
       inkscape:collect="always"
       id="filter12589">
      <feGaussianBlur
         inkscape:collect="always"
         stdDeviation="2.6717241"
         id="feGaussianBlur12591" />
    </filter>
  </defs>
  <sodipodi:namedview
     id="base"
     pagecolor="#ffffff"
     bordercolor="#666666"
     borderopacity="1.0"
     inkscape:pageopacity="0.0"
     inkscape:pageshadow="2"
     inkscape:zoom="0.49497475"
     inkscape:cx="469.67739"
     inkscape:cy="409.7753"
     inkscape:document-units="px"
     inkscape:current-layer="layer1"
     showgrid="false"
     inkscape:window-width="1059"
     inkscape:window-height="856"
     inkscape:window-x="110"
     inkscape:window-y="0"
     inkscape:window-maximized="0" />
  <metadata
     id="metadata4888">
    <rdf:RDF>
      <cc:Work
         rdf:about="">
        <dc:format>image/svg+xml</dc:format>
        <dc:type
           rdf:resource="http://purl.org/dc/dcmitype/StillImage" />
        <dc:title />
      </cc:Work>
    </rdf:RDF>
  </metadata>
  <g
     inkscape:label="Layer 1"
     inkscape:groupmode="layer"
     id="layer1"
     transform="translate(0,-62.362183)">
    <g
       id="g5208"
       transform="matrix(0.66919997,-0.12276406,0.12097156,0.65942885,1.1749059,113.47535)">
      <path
         transform="matrix(4.425339,0,0,4.425339,998.88846,-1567.3916)"
         inkscape:connector-curvature="0"
         id="path12567"
         d="m -225.0744,373.65387 0,10.9965 0,197.09991 0,10.99644 11.23062,0 125.893022,0 20.866603,0 c 6.219888,0 11.207471,-4.90616 11.207471,-10.99644 l 0,-197.09991 c 0,-6.0903 -4.987583,-10.9965 -11.207471,-10.9965 l -20.866603,0 -125.893022,0 -11.23062,0 z"
         style="opacity:0.59345793;fill:#b3b3b3;stroke:#979797;stroke-width:0.80228072;stroke-miterlimit:4;stroke-opacity:1;stroke-dasharray:none;filter:url(#filter12589)" />
      <path
         style="fill:#ffffff;stroke:#979797;stroke-width:3.55036426;stroke-miterlimit:4;stroke-opacity:1;stroke-dasharray:none"
         d="m 11.083804,72.443655 0,48.663235 0,872.23392 0,48.66299 49.699301,0 557.119305,0 92.3418,0 c 27.52511,0 49.59685,-21.7114 49.59685,-48.66299 l 0,-872.23392 c 0,-26.951637 -22.07174,-48.663235 -49.59685,-48.663235 l -92.3418,0 -557.119305,0 -49.699301,0 z"
         id="path8098"
         inkscape:connector-curvature="0" />
      <path
         inkscape:connector-curvature="0"
         id="path5538"
         d="m 10.143066,182.56255 750.638754,0"
         style="color:#000000;fill:#0000ff;fill-opacity:1;fill-rule:nonzero;stroke:#0011ff;stroke-width:1.66889644px;stroke-linecap:butt;stroke-linejoin:miter;stroke-miterlimit:4;stroke-opacity:1;stroke-dasharray:none;stroke-dashoffset:0;marker:none;visibility:visible;display:inline;overflow:visible;enable-background:accumulate" />
      <path
         style="fill:#0000ff;stroke:#0011ff;stroke-width:1.66889644px;stroke-linecap:butt;stroke-linejoin:miter;stroke-opacity:1"
         d="m 10.143066,229.3275 750.638754,0"
         id="path5540"
         inkscape:connector-curvature="0" />
      <path
         inkscape:connector-curvature="0"
         id="path5542"
         d="m 10.143066,277.11819 750.638754,0"
         style="fill:#0000ff;stroke:#0011ff;stroke-width:1.66889644px;stroke-linecap:butt;stroke-linejoin:miter;stroke-opacity:1" />
      <path
         style="fill:#0000ff;stroke:#0011ff;stroke-width:1.66889644px;stroke-linecap:butt;stroke-linejoin:miter;stroke-opacity:1"
         d="m 10.143066,324.90947 750.638754,0"
         id="path5544"
         inkscape:connector-curvature="0" />
      <path
         inkscape:connector-curvature="0"
         id="path5546"
         d="m 10.143066,372.70012 750.638754,0"
         style="fill:#0000ff;stroke:#0011ff;stroke-width:1.66889644px;stroke-linecap:butt;stroke-linejoin:miter;stroke-opacity:1" />
      <path
         style="fill:#0000ff;stroke:#0011ff;stroke-width:1.66889644px;stroke-linecap:butt;stroke-linejoin:miter;stroke-opacity:1"
         d="m 10.143066,420.49148 750.638754,0"
         id="path5548"
         inkscape:connector-curvature="0" />
      <path
         inkscape:connector-curvature="0"
         id="path5550"
         d="m 10.143066,468.28213 750.638754,0"
         style="fill:#0000ff;stroke:#0011ff;stroke-width:1.66889644px;stroke-linecap:butt;stroke-linejoin:miter;stroke-opacity:1" />
      <path
         style="fill:#0000ff;stroke:#0011ff;stroke-width:1.66889644px;stroke-linecap:butt;stroke-linejoin:miter;stroke-opacity:1"
         d="m 10.143066,516.07291 750.638754,0"
         id="path5552"
         inkscape:connector-curvature="0" />
      <path
         inkscape:connector-curvature="0"
         id="path5554"
         d="m 10.143066,563.86414 750.638754,0"
         style="fill:#0000ff;stroke:#0011ff;stroke-width:1.66889644px;stroke-linecap:butt;stroke-linejoin:miter;stroke-opacity:1" />
      <path
         style="fill:#0000ff;stroke:#0011ff;stroke-width:1.66889644px;stroke-linecap:butt;stroke-linejoin:miter;stroke-opacity:1"
         d="m 10.143066,611.65484 750.638754,0"
         id="path5556"
         inkscape:connector-curvature="0" />
      <path
         style="fill:#0000ff;stroke:#0011ff;stroke-width:1.66889644px;stroke-linecap:butt;stroke-linejoin:miter;stroke-opacity:1"
         d="m 10.143066,659.44567 750.638754,0"
         id="path5592"
         inkscape:connector-curvature="0" />
      <path
         inkscape:connector-curvature="0"
         id="path5594"
         d="m 10.143066,707.23681 750.638754,0"
         style="fill:#0000ff;stroke:#0011ff;stroke-width:1.66889644px;stroke-linecap:butt;stroke-linejoin:miter;stroke-opacity:1" />
      <path
         style="fill:#0000ff;stroke:#0011ff;stroke-width:1.66889644px;stroke-linecap:butt;stroke-linejoin:miter;stroke-opacity:1"
         d="m 10.143066,755.02759 750.638754,0"
         id="path5596"
         inkscape:connector-curvature="0" />
      <path
         inkscape:connector-curvature="0"
         id="path5598"
         d="m 10.143066,802.81864 750.638754,0"
         style="fill:#0000ff;stroke:#0011ff;stroke-width:1.66889644px;stroke-linecap:butt;stroke-linejoin:miter;stroke-opacity:1" />
      <path
         style="fill:#0000ff;stroke:#0011ff;stroke-width:1.66889644px;stroke-linecap:butt;stroke-linejoin:miter;stroke-opacity:1"
         d="m 10.143066,850.6096 750.638754,0"
         id="path5600"
         inkscape:connector-curvature="0" />
      <path
         inkscape:connector-curvature="0"
         id="path5602"
         d="m 10.143066,898.40039 750.638754,0"
         style="fill:#0000ff;stroke:#0011ff;stroke-width:1.66889644px;stroke-linecap:butt;stroke-linejoin:miter;stroke-opacity:1" />
      <path
         style="fill:#0000ff;stroke:#0011ff;stroke-width:1.66889644px;stroke-linecap:butt;stroke-linejoin:miter;stroke-opacity:1"
         d="m 10.143066,946.19135 750.638754,0"
         id="path5604"
         inkscape:connector-curvature="0" />
      <path
         inkscape:connector-curvature="0"
         id="path5606"
         d="m 10.143066,993.98231 750.638754,0"
         style="fill:#0000ff;stroke:#0011ff;stroke-width:1.66889644px;stroke-linecap:butt;stroke-linejoin:miter;stroke-opacity:1" />
      <path
         transform="matrix(-0.60547807,0,0,-0.46125897,65.668723,808.19074)"
         d="m 40.438549,471.51758 c 0,15.56584 -9.601112,28.18444 -21.444685,28.18444 -11.8435724,0 -21.4446849,-12.6186 -21.4446849,-28.18444 0,-15.56584 9.6011125,-28.18444 21.4446849,-28.18444 11.843573,0 21.444685,12.6186 21.444685,28.18444 z"
         sodipodi:ry="28.184443"
         sodipodi:rx="21.444685"
         sodipodi:cy="471.51758"
         sodipodi:cx="18.993864"
         id="path6137"
         style="color:#000000;fill:#acacac;fill-opacity:0.3254902;fill-rule:nonzero;stroke:#030000;stroke-width:0.80228072;stroke-linecap:butt;stroke-linejoin:miter;stroke-miterlimit:4;stroke-opacity:1;stroke-dasharray:none;stroke-dashoffset:0;marker:none;visibility:visible;display:inline;overflow:visible;enable-background:accumulate"
         sodipodi:type="arc" />
      <path
         sodipodi:nodetypes="cc"
         style="color:#000000;fill:#0000ff;fill-opacity:1;fill-rule:nonzero;stroke:#ff0000;stroke-width:1.68943775px;stroke-linecap:butt;stroke-linejoin:miter;stroke-miterlimit:4;stroke-opacity:1;stroke-dasharray:none;stroke-dashoffset:0;marker:none;visibility:visible;display:inline;overflow:visible;enable-background:accumulate"
         d="m 106.09371,71.502916 0,968.482784"
         id="path6139"
         inkscape:connector-curvature="0" />
      <path
         sodipodi:type="arc"
         style="color:#000000;fill:#acacac;fill-opacity:0.3254902;fill-rule:nonzero;stroke:#030000;stroke-width:0.80228072;stroke-linecap:butt;stroke-linejoin:miter;stroke-miterlimit:4;stroke-opacity:1;stroke-dasharray:none;stroke-dashoffset:0;marker:none;visibility:visible;display:inline;overflow:visible;enable-background:accumulate"
         id="path12593"
         sodipodi:cx="18.993864"
         sodipodi:cy="471.51758"
         sodipodi:rx="21.444685"
         sodipodi:ry="28.184443"
         d="m 40.438549,471.51758 c 0,15.56584 -9.601112,28.18444 -21.444685,28.18444 -11.8435724,0 -21.4446849,-12.6186 -21.4446849,-28.18444 0,-15.56584 9.6011125,-28.18444 21.4446849,-28.18444 11.843573,0 21.444685,12.6186 21.444685,28.18444 z"
         transform="matrix(-0.60547807,0,0,-0.46125897,65.668723,466.26294)" />
      <path
         transform="matrix(-0.60547807,0,0,-0.46125897,65.668723,1189.4001)"
         d="m 40.438549,471.51758 c 0,15.56584 -9.601112,28.18444 -21.444685,28.18444 -11.8435724,0 -21.4446849,-12.6186 -21.4446849,-28.18444 0,-15.56584 9.6011125,-28.18444 21.4446849,-28.18444 11.843573,0 21.444685,12.6186 21.444685,28.18444 z"
         sodipodi:ry="28.184443"
         sodipodi:rx="21.444685"
         sodipodi:cy="471.51758"
         sodipodi:cx="18.993864"
         id="path12595"
         style="color:#000000;fill:#e4e4e4;fill-opacity:1;fill-rule:nonzero;stroke:#030000;stroke-width:0.80228072;stroke-linecap:butt;stroke-linejoin:miter;stroke-miterlimit:4;stroke-opacity:1;stroke-dasharray:none;stroke-dashoffset:0;marker:none;visibility:visible;display:inline;overflow:visible;enable-background:accumulate"
         sodipodi:type="arc" />
    </g>
    <g
       transform="matrix(0.67831896,-0.05275421,0.05198394,0.66841469,114.16459,150.91756)"
       id="g5234">
      <path
         style="opacity:0.59345793;fill:#b3b3b3;stroke:#979797;stroke-width:0.80228072;stroke-miterlimit:4;stroke-opacity:1;stroke-dasharray:none;filter:url(#filter12589)"
         d="m -225.0744,373.65387 0,10.9965 0,197.09991 0,10.99644 11.23062,0 125.893022,0 20.866603,0 c 6.219888,0 11.207471,-4.90616 11.207471,-10.99644 l 0,-197.09991 c 0,-6.0903 -4.987583,-10.9965 -11.207471,-10.9965 l -20.866603,0 -125.893022,0 -11.23062,0 z"
         id="path5236"
         inkscape:connector-curvature="0"
         transform="matrix(4.425339,0,0,4.425339,998.88846,-1567.3916)" />
      <path
         inkscape:connector-curvature="0"
         id="path5238"
         d="m 11.083804,72.443655 0,48.663235 0,872.23392 0,48.66299 49.699301,0 557.119305,0 92.3418,0 c 27.52511,0 49.59685,-21.7114 49.59685,-48.66299 l 0,-872.23392 c 0,-26.951637 -22.07174,-48.663235 -49.59685,-48.663235 l -92.3418,0 -557.119305,0 -49.699301,0 z"
         style="fill:#ffffff;stroke:#979797;stroke-width:3.55036426;stroke-miterlimit:4;stroke-opacity:1;stroke-dasharray:none" />
      <path
         style="color:#000000;fill:#0000ff;fill-opacity:1;fill-rule:nonzero;stroke:#0011ff;stroke-width:1.66889644px;stroke-linecap:butt;stroke-linejoin:miter;stroke-miterlimit:4;stroke-opacity:1;stroke-dasharray:none;stroke-dashoffset:0;marker:none;visibility:visible;display:inline;overflow:visible;enable-background:accumulate"
         d="m 10.143066,182.56255 750.638754,0"
         id="path5240"
         inkscape:connector-curvature="0" />
      <path
         inkscape:connector-curvature="0"
         id="path5242"
         d="m 10.143066,229.3275 750.638754,0"
         style="fill:#0000ff;stroke:#0011ff;stroke-width:1.66889644px;stroke-linecap:butt;stroke-linejoin:miter;stroke-opacity:1" />
      <path
         style="fill:#0000ff;stroke:#0011ff;stroke-width:1.66889644px;stroke-linecap:butt;stroke-linejoin:miter;stroke-opacity:1"
         d="m 10.143066,277.11819 750.638754,0"
         id="path5244"
         inkscape:connector-curvature="0" />
      <path
         inkscape:connector-curvature="0"
         id="path5246"
         d="m 10.143066,324.90947 750.638754,0"
         style="fill:#0000ff;stroke:#0011ff;stroke-width:1.66889644px;stroke-linecap:butt;stroke-linejoin:miter;stroke-opacity:1" />
      <path
         style="fill:#0000ff;stroke:#0011ff;stroke-width:1.66889644px;stroke-linecap:butt;stroke-linejoin:miter;stroke-opacity:1"
         d="m 10.143066,372.70012 750.638754,0"
         id="path5248"
         inkscape:connector-curvature="0" />
      <path
         inkscape:connector-curvature="0"
         id="path5250"
         d="m 10.143066,420.49148 750.638754,0"
         style="fill:#0000ff;stroke:#0011ff;stroke-width:1.66889644px;stroke-linecap:butt;stroke-linejoin:miter;stroke-opacity:1" />
      <path
         style="fill:#0000ff;stroke:#0011ff;stroke-width:1.66889644px;stroke-linecap:butt;stroke-linejoin:miter;stroke-opacity:1"
         d="m 10.143066,468.28213 750.638754,0"
         id="path5252"
         inkscape:connector-curvature="0" />
      <path
         inkscape:connector-curvature="0"
         id="path5254"
         d="m 10.143066,516.07291 750.638754,0"
         style="fill:#0000ff;stroke:#0011ff;stroke-width:1.66889644px;stroke-linecap:butt;stroke-linejoin:miter;stroke-opacity:1" />
      <path
         style="fill:#0000ff;stroke:#0011ff;stroke-width:1.66889644px;stroke-linecap:butt;stroke-linejoin:miter;stroke-opacity:1"
         d="m 10.143066,563.86414 750.638754,0"
         id="path5256"
         inkscape:connector-curvature="0" />
      <path
         inkscape:connector-curvature="0"
         id="path5258"
         d="m 10.143066,611.65484 750.638754,0"
         style="fill:#0000ff;stroke:#0011ff;stroke-width:1.66889644px;stroke-linecap:butt;stroke-linejoin:miter;stroke-opacity:1" />
      <path
         inkscape:connector-curvature="0"
         id="path5260"
         d="m 10.143066,659.44567 750.638754,0"
         style="fill:#0000ff;stroke:#0011ff;stroke-width:1.66889644px;stroke-linecap:butt;stroke-linejoin:miter;stroke-opacity:1" />
      <path
         style="fill:#0000ff;stroke:#0011ff;stroke-width:1.66889644px;stroke-linecap:butt;stroke-linejoin:miter;stroke-opacity:1"
         d="m 10.143066,707.23681 750.638754,0"
         id="path5262"
         inkscape:connector-curvature="0" />
      <path
         inkscape:connector-curvature="0"
         id="path5264"
         d="m 10.143066,755.02759 750.638754,0"
         style="fill:#0000ff;stroke:#0011ff;stroke-width:1.66889644px;stroke-linecap:butt;stroke-linejoin:miter;stroke-opacity:1" />
      <path
         style="fill:#0000ff;stroke:#0011ff;stroke-width:1.66889644px;stroke-linecap:butt;stroke-linejoin:miter;stroke-opacity:1"
         d="m 10.143066,802.81864 750.638754,0"
         id="path5266"
         inkscape:connector-curvature="0" />
      <path
         inkscape:connector-curvature="0"
         id="path5268"
         d="m 10.143066,850.6096 750.638754,0"
         style="fill:#0000ff;stroke:#0011ff;stroke-width:1.66889644px;stroke-linecap:butt;stroke-linejoin:miter;stroke-opacity:1" />
      <path
         style="fill:#0000ff;stroke:#0011ff;stroke-width:1.66889644px;stroke-linecap:butt;stroke-linejoin:miter;stroke-opacity:1"
         d="m 10.143066,898.40039 750.638754,0"
         id="path5270"
         inkscape:connector-curvature="0" />
      <path
         inkscape:connector-curvature="0"
         id="path5272"
         d="m 10.143066,946.19135 750.638754,0"
         style="fill:#0000ff;stroke:#0011ff;stroke-width:1.66889644px;stroke-linecap:butt;stroke-linejoin:miter;stroke-opacity:1" />
      <path
         style="fill:#0000ff;stroke:#0011ff;stroke-width:1.66889644px;stroke-linecap:butt;stroke-linejoin:miter;stroke-opacity:1"
         d="m 10.143066,993.98231 750.638754,0"
         id="path5274"
         inkscape:connector-curvature="0" />
      <path
         sodipodi:type="arc"
         style="color:#000000;fill:#acacac;fill-opacity:0.3254902;fill-rule:nonzero;stroke:#030000;stroke-width:0.80228072;stroke-linecap:butt;stroke-linejoin:miter;stroke-miterlimit:4;stroke-opacity:1;stroke-dasharray:none;stroke-dashoffset:0;marker:none;visibility:visible;display:inline;overflow:visible;enable-background:accumulate"
         id="path5276"
         sodipodi:cx="18.993864"
         sodipodi:cy="471.51758"
         sodipodi:rx="21.444685"
         sodipodi:ry="28.184443"
         d="m 40.438549,471.51758 c 0,15.56584 -9.601112,28.18444 -21.444685,28.18444 -11.8435724,0 -21.4446849,-12.6186 -21.4446849,-28.18444 0,-15.56584 9.6011125,-28.18444 21.4446849,-28.18444 11.843573,0 21.444685,12.6186 21.444685,28.18444 z"
         transform="matrix(-0.60547807,0,0,-0.46125897,65.668723,808.19074)" />
      <path
         inkscape:connector-curvature="0"
         id="path5278"
         d="m 106.09371,71.502916 0,968.482784"
         style="color:#000000;fill:#0000ff;fill-opacity:1;fill-rule:nonzero;stroke:#ff0000;stroke-width:1.68943775px;stroke-linecap:butt;stroke-linejoin:miter;stroke-miterlimit:4;stroke-opacity:1;stroke-dasharray:none;stroke-dashoffset:0;marker:none;visibility:visible;display:inline;overflow:visible;enable-background:accumulate"
         sodipodi:nodetypes="cc" />
      <path
         transform="matrix(-0.60547807,0,0,-0.46125897,65.668723,466.26294)"
         d="m 40.438549,471.51758 c 0,15.56584 -9.601112,28.18444 -21.444685,28.18444 -11.8435724,0 -21.4446849,-12.6186 -21.4446849,-28.18444 0,-15.56584 9.6011125,-28.18444 21.4446849,-28.18444 11.843573,0 21.444685,12.6186 21.444685,28.18444 z"
         sodipodi:ry="28.184443"
         sodipodi:rx="21.444685"
         sodipodi:cy="471.51758"
         sodipodi:cx="18.993864"
         id="path5280"
         style="color:#000000;fill:#acacac;fill-opacity:0.3254902;fill-rule:nonzero;stroke:#030000;stroke-width:0.80228072;stroke-linecap:butt;stroke-linejoin:miter;stroke-miterlimit:4;stroke-opacity:1;stroke-dasharray:none;stroke-dashoffset:0;marker:none;visibility:visible;display:inline;overflow:visible;enable-background:accumulate"
         sodipodi:type="arc" />
      <path
         sodipodi:type="arc"
         style="color:#000000;fill:#e4e4e4;fill-opacity:1;fill-rule:nonzero;stroke:#030000;stroke-width:0.80228072;stroke-linecap:butt;stroke-linejoin:miter;stroke-miterlimit:4;stroke-opacity:1;stroke-dasharray:none;stroke-dashoffset:0;marker:none;visibility:visible;display:inline;overflow:visible;enable-background:accumulate"
         id="path5282"
         sodipodi:cx="18.993864"
         sodipodi:cy="471.51758"
         sodipodi:rx="21.444685"
         sodipodi:ry="28.184443"
         d="m 40.438549,471.51758 c 0,15.56584 -9.601112,28.18444 -21.444685,28.18444 -11.8435724,0 -21.4446849,-12.6186 -21.4446849,-28.18444 0,-15.56584 9.6011125,-28.18444 21.4446849,-28.18444 11.843573,0 21.444685,12.6186 21.444685,28.18444 z"
         transform="matrix(-0.60547807,0,0,-0.46125897,65.668723,1189.4001)" />
    </g>
    <g
       transform="matrix(0.66919997,-0.12276406,0.12097156,0.65942885,77.946499,279.14037)"
       id="g5284">
      <path
         style="opacity:0.59345793;fill:#b3b3b3;stroke:#979797;stroke-width:0.80228072;stroke-miterlimit:4;stroke-opacity:1;stroke-dasharray:none;filter:url(#filter12589)"
         d="m -225.0744,373.65387 0,10.9965 0,197.09991 0,10.99644 11.23062,0 125.893022,0 20.866603,0 c 6.219888,0 11.207471,-4.90616 11.207471,-10.99644 l 0,-197.09991 c 0,-6.0903 -4.987583,-10.9965 -11.207471,-10.9965 l -20.866603,0 -125.893022,0 -11.23062,0 z"
         id="path5286"
         inkscape:connector-curvature="0"
         transform="matrix(4.425339,0,0,4.425339,998.88846,-1567.3916)" />
      <path
         inkscape:connector-curvature="0"
         id="path5288"
         d="m 11.083804,72.443655 0,48.663235 0,872.23392 0,48.66299 49.699301,0 557.119305,0 92.3418,0 c 27.52511,0 49.59685,-21.7114 49.59685,-48.66299 l 0,-872.23392 c 0,-26.951637 -22.07174,-48.663235 -49.59685,-48.663235 l -92.3418,0 -557.119305,0 -49.699301,0 z"
         style="fill:#ffffff;stroke:#979797;stroke-width:3.55036426;stroke-miterlimit:4;stroke-opacity:1;stroke-dasharray:none" />
      <path
         style="color:#000000;fill:#0000ff;fill-opacity:1;fill-rule:nonzero;stroke:#0011ff;stroke-width:1.66889644px;stroke-linecap:butt;stroke-linejoin:miter;stroke-miterlimit:4;stroke-opacity:1;stroke-dasharray:none;stroke-dashoffset:0;marker:none;visibility:visible;display:inline;overflow:visible;enable-background:accumulate"
         d="m 10.143066,182.56255 750.638754,0"
         id="path5290"
         inkscape:connector-curvature="0" />
      <path
         inkscape:connector-curvature="0"
         id="path5292"
         d="m 10.143066,229.3275 750.638754,0"
         style="fill:#0000ff;stroke:#0011ff;stroke-width:1.66889644px;stroke-linecap:butt;stroke-linejoin:miter;stroke-opacity:1" />
      <path
         style="fill:#0000ff;stroke:#0011ff;stroke-width:1.66889644px;stroke-linecap:butt;stroke-linejoin:miter;stroke-opacity:1"
         d="m 10.143066,277.11819 750.638754,0"
         id="path5294"
         inkscape:connector-curvature="0" />
      <path
         inkscape:connector-curvature="0"
         id="path5296"
         d="m 10.143066,324.90947 750.638754,0"
         style="fill:#0000ff;stroke:#0011ff;stroke-width:1.66889644px;stroke-linecap:butt;stroke-linejoin:miter;stroke-opacity:1" />
      <path
         style="fill:#0000ff;stroke:#0011ff;stroke-width:1.66889644px;stroke-linecap:butt;stroke-linejoin:miter;stroke-opacity:1"
         d="m 10.143066,372.70012 750.638754,0"
         id="path5298"
         inkscape:connector-curvature="0" />
      <path
         inkscape:connector-curvature="0"
         id="path5300"
         d="m 10.143066,420.49148 750.638754,0"
         style="fill:#0000ff;stroke:#0011ff;stroke-width:1.66889644px;stroke-linecap:butt;stroke-linejoin:miter;stroke-opacity:1" />
      <path
         style="fill:#0000ff;stroke:#0011ff;stroke-width:1.66889644px;stroke-linecap:butt;stroke-linejoin:miter;stroke-opacity:1"
         d="m 10.143066,468.28213 750.638754,0"
         id="path5302"
         inkscape:connector-curvature="0" />
      <path
         inkscape:connector-curvature="0"
         id="path5304"
         d="m 10.143066,516.07291 750.638754,0"
         style="fill:#0000ff;stroke:#0011ff;stroke-width:1.66889644px;stroke-linecap:butt;stroke-linejoin:miter;stroke-opacity:1" />
      <path
         style="fill:#0000ff;stroke:#0011ff;stroke-width:1.66889644px;stroke-linecap:butt;stroke-linejoin:miter;stroke-opacity:1"
         d="m 10.143066,563.86414 750.638754,0"
         id="path5306"
         inkscape:connector-curvature="0" />
      <path
         inkscape:connector-curvature="0"
         id="path5308"
         d="m 10.143066,611.65484 750.638754,0"
         style="fill:#0000ff;stroke:#0011ff;stroke-width:1.66889644px;stroke-linecap:butt;stroke-linejoin:miter;stroke-opacity:1" />
      <path
         inkscape:connector-curvature="0"
         id="path5310"
         d="m 10.143066,659.44567 750.638754,0"
         style="fill:#0000ff;stroke:#0011ff;stroke-width:1.66889644px;stroke-linecap:butt;stroke-linejoin:miter;stroke-opacity:1" />
      <path
         style="fill:#0000ff;stroke:#0011ff;stroke-width:1.66889644px;stroke-linecap:butt;stroke-linejoin:miter;stroke-opacity:1"
         d="m 10.143066,707.23681 750.638754,0"
         id="path5312"
         inkscape:connector-curvature="0" />
      <path
         inkscape:connector-curvature="0"
         id="path5314"
         d="m 10.143066,755.02759 750.638754,0"
         style="fill:#0000ff;stroke:#0011ff;stroke-width:1.66889644px;stroke-linecap:butt;stroke-linejoin:miter;stroke-opacity:1" />
      <path
         style="fill:#0000ff;stroke:#0011ff;stroke-width:1.66889644px;stroke-linecap:butt;stroke-linejoin:miter;stroke-opacity:1"
         d="m 10.143066,802.81864 750.638754,0"
         id="path5316"
         inkscape:connector-curvature="0" />
      <path
         inkscape:connector-curvature="0"
         id="path5318"
         d="m 10.143066,850.6096 750.638754,0"
         style="fill:#0000ff;stroke:#0011ff;stroke-width:1.66889644px;stroke-linecap:butt;stroke-linejoin:miter;stroke-opacity:1" />
      <path
         style="fill:#0000ff;stroke:#0011ff;stroke-width:1.66889644px;stroke-linecap:butt;stroke-linejoin:miter;stroke-opacity:1"
         d="m 10.143066,898.40039 750.638754,0"
         id="path5320"
         inkscape:connector-curvature="0" />
      <path
         inkscape:connector-curvature="0"
         id="path5322"
         d="m 10.143066,946.19135 750.638754,0"
         style="fill:#0000ff;stroke:#0011ff;stroke-width:1.66889644px;stroke-linecap:butt;stroke-linejoin:miter;stroke-opacity:1" />
      <path
         style="fill:#0000ff;stroke:#0011ff;stroke-width:1.66889644px;stroke-linecap:butt;stroke-linejoin:miter;stroke-opacity:1"
         d="m 10.143066,993.98231 750.638754,0"
         id="path5324"
         inkscape:connector-curvature="0" />
      <path
         sodipodi:type="arc"
         style="color:#000000;fill:#acacac;fill-opacity:0.3254902;fill-rule:nonzero;stroke:#030000;stroke-width:0.80228072;stroke-linecap:butt;stroke-linejoin:miter;stroke-miterlimit:4;stroke-opacity:1;stroke-dasharray:none;stroke-dashoffset:0;marker:none;visibility:visible;display:inline;overflow:visible;enable-background:accumulate"
         id="path5326"
         sodipodi:cx="18.993864"
         sodipodi:cy="471.51758"
         sodipodi:rx="21.444685"
         sodipodi:ry="28.184443"
         d="m 40.438549,471.51758 c 0,15.56584 -9.601112,28.18444 -21.444685,28.18444 -11.8435724,0 -21.4446849,-12.6186 -21.4446849,-28.18444 0,-15.56584 9.6011125,-28.18444 21.4446849,-28.18444 11.843573,0 21.444685,12.6186 21.444685,28.18444 z"
         transform="matrix(-0.60547807,0,0,-0.46125897,65.668723,808.19074)" />
      <path
         inkscape:connector-curvature="0"
         id="path5328"
         d="m 106.09371,71.502916 0,968.482784"
         style="color:#000000;fill:#0000ff;fill-opacity:1;fill-rule:nonzero;stroke:#ff0000;stroke-width:1.68943775px;stroke-linecap:butt;stroke-linejoin:miter;stroke-miterlimit:4;stroke-opacity:1;stroke-dasharray:none;stroke-dashoffset:0;marker:none;visibility:visible;display:inline;overflow:visible;enable-background:accumulate"
         sodipodi:nodetypes="cc" />
      <path
         transform="matrix(-0.60547807,0,0,-0.46125897,65.668723,466.26294)"
         d="m 40.438549,471.51758 c 0,15.56584 -9.601112,28.18444 -21.444685,28.18444 -11.8435724,0 -21.4446849,-12.6186 -21.4446849,-28.18444 0,-15.56584 9.6011125,-28.18444 21.4446849,-28.18444 11.843573,0 21.444685,12.6186 21.444685,28.18444 z"
         sodipodi:ry="28.184443"
         sodipodi:rx="21.444685"
         sodipodi:cy="471.51758"
         sodipodi:cx="18.993864"
         id="path5330"
         style="color:#000000;fill:#acacac;fill-opacity:0.3254902;fill-rule:nonzero;stroke:#030000;stroke-width:0.80228072;stroke-linecap:butt;stroke-linejoin:miter;stroke-miterlimit:4;stroke-opacity:1;stroke-dasharray:none;stroke-dashoffset:0;marker:none;visibility:visible;display:inline;overflow:visible;enable-background:accumulate"
         sodipodi:type="arc" />
      <path
         sodipodi:type="arc"
         style="color:#000000;fill:#e4e4e4;fill-opacity:1;fill-rule:nonzero;stroke:#030000;stroke-width:0.80228072;stroke-linecap:butt;stroke-linejoin:miter;stroke-miterlimit:4;stroke-opacity:1;stroke-dasharray:none;stroke-dashoffset:0;marker:none;visibility:visible;display:inline;overflow:visible;enable-background:accumulate"
         id="path5332"
         sodipodi:cx="18.993864"
         sodipodi:cy="471.51758"
         sodipodi:rx="21.444685"
         sodipodi:ry="28.184443"
         d="m 40.438549,471.51758 c 0,15.56584 -9.601112,28.18444 -21.444685,28.18444 -11.8435724,0 -21.4446849,-12.6186 -21.4446849,-28.18444 0,-15.56584 9.6011125,-28.18444 21.4446849,-28.18444 11.843573,0 21.444685,12.6186 21.444685,28.18444 z"
         transform="matrix(-0.60547807,0,0,-0.46125897,65.668723,1189.4001)" />
    </g>
    <g
       id="g5334"
       transform="matrix(0.67956082,0.03311657,-0.03263303,0.66963842,210.6424,156.37427)">
      <path
         transform="matrix(4.425339,0,0,4.425339,998.88846,-1567.3916)"
         inkscape:connector-curvature="0"
         id="path5336"
         d="m -225.0744,373.65387 0,10.9965 0,197.09991 0,10.99644 11.23062,0 125.893022,0 20.866603,0 c 6.219888,0 11.207471,-4.90616 11.207471,-10.99644 l 0,-197.09991 c 0,-6.0903 -4.987583,-10.9965 -11.207471,-10.9965 l -20.866603,0 -125.893022,0 -11.23062,0 z"
         style="opacity:0.59345793;fill:#b3b3b3;stroke:#979797;stroke-width:0.80228072;stroke-miterlimit:4;stroke-opacity:1;stroke-dasharray:none;filter:url(#filter12589)" />
      <path
         style="fill:#ffffff;stroke:#979797;stroke-width:3.55036426;stroke-miterlimit:4;stroke-opacity:1;stroke-dasharray:none"
         d="m 11.083804,72.443655 0,48.663235 0,872.23392 0,48.66299 49.699301,0 557.119305,0 92.3418,0 c 27.52511,0 49.59685,-21.7114 49.59685,-48.66299 l 0,-872.23392 c 0,-26.951637 -22.07174,-48.663235 -49.59685,-48.663235 l -92.3418,0 -557.119305,0 -49.699301,0 z"
         id="path5338"
         inkscape:connector-curvature="0" />
      <path
         inkscape:connector-curvature="0"
         id="path5340"
         d="m 10.143066,182.56255 750.638754,0"
         style="color:#000000;fill:#0000ff;fill-opacity:1;fill-rule:nonzero;stroke:#0011ff;stroke-width:1.66889644px;stroke-linecap:butt;stroke-linejoin:miter;stroke-miterlimit:4;stroke-opacity:1;stroke-dasharray:none;stroke-dashoffset:0;marker:none;visibility:visible;display:inline;overflow:visible;enable-background:accumulate" />
      <path
         style="fill:#0000ff;stroke:#0011ff;stroke-width:1.66889644px;stroke-linecap:butt;stroke-linejoin:miter;stroke-opacity:1"
         d="m 10.143066,229.3275 750.638754,0"
         id="path5342"
         inkscape:connector-curvature="0" />
      <path
         inkscape:connector-curvature="0"
         id="path5344"
         d="m 10.143066,277.11819 750.638754,0"
         style="fill:#0000ff;stroke:#0011ff;stroke-width:1.66889644px;stroke-linecap:butt;stroke-linejoin:miter;stroke-opacity:1" />
      <path
         style="fill:#0000ff;stroke:#0011ff;stroke-width:1.66889644px;stroke-linecap:butt;stroke-linejoin:miter;stroke-opacity:1"
         d="m 10.143066,324.90947 750.638754,0"
         id="path5346"
         inkscape:connector-curvature="0" />
      <path
         inkscape:connector-curvature="0"
         id="path5348"
         d="m 10.143066,372.70012 750.638754,0"
         style="fill:#0000ff;stroke:#0011ff;stroke-width:1.66889644px;stroke-linecap:butt;stroke-linejoin:miter;stroke-opacity:1" />
      <path
         style="fill:#0000ff;stroke:#0011ff;stroke-width:1.66889644px;stroke-linecap:butt;stroke-linejoin:miter;stroke-opacity:1"
         d="m 10.143066,420.49148 750.638754,0"
         id="path5350"
         inkscape:connector-curvature="0" />
      <path
         inkscape:connector-curvature="0"
         id="path5352"
         d="m 10.143066,468.28213 750.638754,0"
         style="fill:#0000ff;stroke:#0011ff;stroke-width:1.66889644px;stroke-linecap:butt;stroke-linejoin:miter;stroke-opacity:1" />
      <path
         style="fill:#0000ff;stroke:#0011ff;stroke-width:1.66889644px;stroke-linecap:butt;stroke-linejoin:miter;stroke-opacity:1"
         d="m 10.143066,516.07291 750.638754,0"
         id="path5354"
         inkscape:connector-curvature="0" />
      <path
         inkscape:connector-curvature="0"
         id="path5356"
         d="m 10.143066,563.86414 750.638754,0"
         style="fill:#0000ff;stroke:#0011ff;stroke-width:1.66889644px;stroke-linecap:butt;stroke-linejoin:miter;stroke-opacity:1" />
      <path
         style="fill:#0000ff;stroke:#0011ff;stroke-width:1.66889644px;stroke-linecap:butt;stroke-linejoin:miter;stroke-opacity:1"
         d="m 10.143066,611.65484 750.638754,0"
         id="path5358"
         inkscape:connector-curvature="0" />
      <path
         style="fill:#0000ff;stroke:#0011ff;stroke-width:1.66889644px;stroke-linecap:butt;stroke-linejoin:miter;stroke-opacity:1"
         d="m 10.143066,659.44567 750.638754,0"
         id="path5360"
         inkscape:connector-curvature="0" />
      <path
         inkscape:connector-curvature="0"
         id="path5362"
         d="m 10.143066,707.23681 750.638754,0"
         style="fill:#0000ff;stroke:#0011ff;stroke-width:1.66889644px;stroke-linecap:butt;stroke-linejoin:miter;stroke-opacity:1" />
      <path
         style="fill:#0000ff;stroke:#0011ff;stroke-width:1.66889644px;stroke-linecap:butt;stroke-linejoin:miter;stroke-opacity:1"
         d="m 10.143066,755.02759 750.638754,0"
         id="path5364"
         inkscape:connector-curvature="0" />
      <path
         inkscape:connector-curvature="0"
         id="path5366"
         d="m 10.143066,802.81864 750.638754,0"
         style="fill:#0000ff;stroke:#0011ff;stroke-width:1.66889644px;stroke-linecap:butt;stroke-linejoin:miter;stroke-opacity:1" />
      <path
         style="fill:#0000ff;stroke:#0011ff;stroke-width:1.66889644px;stroke-linecap:butt;stroke-linejoin:miter;stroke-opacity:1"
         d="m 10.143066,850.6096 750.638754,0"
         id="path5368"
         inkscape:connector-curvature="0" />
      <path
         inkscape:connector-curvature="0"
         id="path5370"
         d="m 10.143066,898.40039 750.638754,0"
         style="fill:#0000ff;stroke:#0011ff;stroke-width:1.66889644px;stroke-linecap:butt;stroke-linejoin:miter;stroke-opacity:1" />
      <path
         style="fill:#0000ff;stroke:#0011ff;stroke-width:1.66889644px;stroke-linecap:butt;stroke-linejoin:miter;stroke-opacity:1"
         d="m 10.143066,946.19135 750.638754,0"
         id="path5372"
         inkscape:connector-curvature="0" />
      <path
         inkscape:connector-curvature="0"
         id="path5374"
         d="m 10.143066,993.98231 750.638754,0"
         style="fill:#0000ff;stroke:#0011ff;stroke-width:1.66889644px;stroke-linecap:butt;stroke-linejoin:miter;stroke-opacity:1" />
      <path
         transform="matrix(-0.60547807,0,0,-0.46125897,65.668723,808.19074)"
         d="m 40.438549,471.51758 c 0,15.56584 -9.601112,28.18444 -21.444685,28.18444 -11.8435724,0 -21.4446849,-12.6186 -21.4446849,-28.18444 0,-15.56584 9.6011125,-28.18444 21.4446849,-28.18444 11.843573,0 21.444685,12.6186 21.444685,28.18444 z"
         sodipodi:ry="28.184443"
         sodipodi:rx="21.444685"
         sodipodi:cy="471.51758"
         sodipodi:cx="18.993864"
         id="path5376"
         style="color:#000000;fill:#acacac;fill-opacity:0.3254902;fill-rule:nonzero;stroke:#030000;stroke-width:0.80228072;stroke-linecap:butt;stroke-linejoin:miter;stroke-miterlimit:4;stroke-opacity:1;stroke-dasharray:none;stroke-dashoffset:0;marker:none;visibility:visible;display:inline;overflow:visible;enable-background:accumulate"
         sodipodi:type="arc" />
      <path
         sodipodi:nodetypes="cc"
         style="color:#000000;fill:#0000ff;fill-opacity:1;fill-rule:nonzero;stroke:#ff0000;stroke-width:1.68943775px;stroke-linecap:butt;stroke-linejoin:miter;stroke-miterlimit:4;stroke-opacity:1;stroke-dasharray:none;stroke-dashoffset:0;marker:none;visibility:visible;display:inline;overflow:visible;enable-background:accumulate"
         d="m 106.09371,71.502916 0,968.482784"
         id="path5378"
         inkscape:connector-curvature="0" />
      <path
         sodipodi:type="arc"
         style="color:#000000;fill:#acacac;fill-opacity:0.3254902;fill-rule:nonzero;stroke:#030000;stroke-width:0.80228072;stroke-linecap:butt;stroke-linejoin:miter;stroke-miterlimit:4;stroke-opacity:1;stroke-dasharray:none;stroke-dashoffset:0;marker:none;visibility:visible;display:inline;overflow:visible;enable-background:accumulate"
         id="path5380"
         sodipodi:cx="18.993864"
         sodipodi:cy="471.51758"
         sodipodi:rx="21.444685"
         sodipodi:ry="28.184443"
         d="m 40.438549,471.51758 c 0,15.56584 -9.601112,28.18444 -21.444685,28.18444 -11.8435724,0 -21.4446849,-12.6186 -21.4446849,-28.18444 0,-15.56584 9.6011125,-28.18444 21.4446849,-28.18444 11.843573,0 21.444685,12.6186 21.444685,28.18444 z"
         transform="matrix(-0.60547807,0,0,-0.46125897,65.668723,466.26294)" />
      <path
         transform="matrix(-0.60547807,0,0,-0.46125897,65.668723,1189.4001)"
         d="m 40.438549,471.51758 c 0,15.56584 -9.601112,28.18444 -21.444685,28.18444 -11.8435724,0 -21.4446849,-12.6186 -21.4446849,-28.18444 0,-15.56584 9.6011125,-28.18444 21.4446849,-28.18444 11.843573,0 21.444685,12.6186 21.444685,28.18444 z"
         sodipodi:ry="28.184443"
         sodipodi:rx="21.444685"
         sodipodi:cy="471.51758"
         sodipodi:cx="18.993864"
         id="path5382"
         style="color:#000000;fill:#e4e4e4;fill-opacity:1;fill-rule:nonzero;stroke:#030000;stroke-width:0.80228072;stroke-linecap:butt;stroke-linejoin:miter;stroke-miterlimit:4;stroke-opacity:1;stroke-dasharray:none;stroke-dashoffset:0;marker:none;visibility:visible;display:inline;overflow:visible;enable-background:accumulate"
         sodipodi:type="arc" />
    </g>
  </g>
</svg>
